<svg width="50" height="50" viewBox="0 0 50 50" fill="none" xmlns="http://www.w3.org/2000/svg">
<g clip-path="url(#clip0_19_665)">
<path d="M44.1406 5.20881e-06H5.85938C4.30537 5.20881e-06 2.81502 0.61733 1.71617 1.71618C0.617325 2.81502 0 4.30538 0 5.85938L0 31.082C0 32.636 0.617325 34.1264 1.71617 35.2252C2.81502 36.3241 4.30537 36.9414 5.85938 36.9414H14.9531C15.0567 36.9414 15.1561 36.9826 15.2293 37.0558C15.3026 37.1291 15.3438 37.2284 15.3438 37.332V47.2656C15.3437 47.8065 15.5041 48.3352 15.8045 48.7849C16.105 49.2346 16.532 49.5851 17.0317 49.7921C17.5314 49.999 18.0812 50.0532 18.6116 49.9477C19.1421 49.8421 19.6293 49.5817 20.0117 49.1992L32.1523 37.0586C32.1888 37.0224 32.2321 36.9938 32.2797 36.9743C32.3273 36.9549 32.3783 36.945 32.4297 36.9453H44.1484C45.7024 36.9453 47.1928 36.328 48.2916 35.2291C49.3905 34.1303 50.0078 32.6399 50.0078 31.0859V5.85938C50.0078 5.08926 49.856 4.32669 49.561 3.61529C49.2661 2.90389 48.8338 2.25761 48.2889 1.71341C47.744 1.16922 47.0971 0.737781 46.3853 0.443779C45.6735 0.149778 44.9107 -0.00102162 44.1406 5.20881e-06ZM47.6562 31.082C47.6562 32.0144 47.2859 32.9087 46.6265 33.568C45.9672 34.2273 45.073 34.5977 44.1406 34.5977H32.4219C31.6994 34.5924 31.0043 34.8733 30.4883 35.3789L18.3594 47.5391C18.3047 47.5942 18.2349 47.6317 18.1589 47.647C18.0828 47.6623 18.0039 47.6545 17.9322 47.6248C17.8606 47.595 17.7994 47.5446 17.7565 47.4799C17.7136 47.4153 17.691 47.3393 17.6914 47.2617V37.332C17.6914 36.6068 17.4033 35.9113 16.8905 35.3985C16.3777 34.8857 15.6822 34.5977 14.957 34.5977H5.85938C4.92697 34.5977 4.03276 34.2273 3.37345 33.568C2.71415 32.9087 2.34375 32.0144 2.34375 31.082V5.85938C2.34375 4.92698 2.71415 4.03277 3.37345 3.37346C4.03276 2.71415 4.92697 2.34376 5.85938 2.34376H44.1406C45.073 2.34376 45.9672 2.71415 46.6265 3.37346C47.2859 4.03277 47.6562 4.92698 47.6562 5.85938V31.082Z" fill="white"/>
</g>
<defs>
<clipPath id="clip0_19_665">
<rect width="50" height="50" fill="white"/>
</clipPath>
</defs>
</svg>
