<svg width="50" height="50" viewBox="0 0 50 50" fill="none" xmlns="http://www.w3.org/2000/svg">
<path d="M32.7807 18.092C32.7807 13.7436 29.1757 10.2061 24.7448 10.2061C20.3139 10.2061 16.709 13.7436 16.709 18.092C16.709 22.4404 20.3139 25.9779 24.7448 25.9779C29.1757 25.9779 32.7807 22.4404 32.7807 18.092Z" fill="white"/>
<path d="M24.741 49.9937L27.998 45.7945C31.3977 41.3586 42.4892 26.2445 42.4892 17.9813C42.49 7.22578 35.3593 0 24.745 0C14.1306 0 7 7.22578 7 17.982C7 26.8805 20.0248 43.893 21.5062 45.7984L24.741 49.9937ZM13.5385 18.0922C13.5385 12.0211 18.5655 7.08125 24.745 7.08125C30.9244 7.08125 35.9514 12.0211 35.9514 18.0922C35.9514 24.1633 30.9244 29.1031 24.745 29.1031C18.5655 29.1031 13.5385 24.1641 13.5385 18.0922Z" fill="white"/>
</svg>
