<svg width="50" height="50" viewBox="0 0 50 50" fill="none" xmlns="http://www.w3.org/2000/svg">
<g clip-path="url(#clip0_19_669)">
<path d="M47.5999 35.8502L41.5499 29.7502C40.5499 28.7502 39.1999 28.1502 37.9499 28.1502C36.5999 28.1502 35.3999 28.7002 34.3499 29.7502L30.8499 33.2502C30.6999 33.1502 30.4999 33.0502 30.3499 33.0002C30.3499 33.0002 30.2999 33.0002 30.2999 32.9502L30.2499 32.9002C29.7999 32.6002 29.2999 32.3002 28.6999 32.0502C25.6499 30.1502 22.7999 27.5002 19.8999 23.9502C18.5499 22.2502 17.5999 20.7502 16.8499 19.1002C17.6499 18.4502 18.2499 17.8002 18.6999 17.3002L20.2499 15.7502C21.4499 14.6502 22.0499 13.4002 22.0499 12.1002C22.0499 10.7502 21.4499 9.5002 20.2999 8.3002L15.5499 3.5502C15.0999 3.1002 14.6499 2.6502 14.1499 2.2002C13.1499 1.2502 11.8999 0.700195 10.5999 0.700195C9.14986 0.700195 7.94986 1.2002 6.84986 2.3002L3.19986 5.9502C1.74986 7.3002 0.899864 9.0002 0.699864 11.1002V11.1502C0.599864 13.7502 0.999862 16.1502 2.09986 19.1502C3.84986 23.8502 6.49986 28.2502 10.4499 33.1002C15.5999 38.9002 21.3999 43.4002 27.8499 46.5002L27.9999 46.5502C29.8999 47.4002 33.4999 49.0002 37.4999 49.2502H38.0499C40.6999 49.2502 42.6999 48.4002 44.3499 46.6002C44.9499 45.9002 45.5999 45.2502 46.1499 44.6502C46.5999 44.3002 46.8999 43.9502 47.1999 43.6002L47.5999 43.2002L47.6999 43.1002C49.7999 40.8002 49.7999 38.0002 47.5999 35.8502ZM45.8499 41.4002L45.3499 41.9002L45.2999 42.0002C45.0499 42.3002 44.8499 42.5502 44.5999 42.7502L44.4499 42.9002C43.8499 43.5002 43.1499 44.2002 42.4499 45.0002C41.2999 46.2502 39.9999 46.8002 38.0499 46.8002H37.6499C34.1499 46.5502 30.9499 45.1502 29.0499 44.3002L28.9499 44.2502C22.7999 41.3002 17.2499 37.0002 12.3999 31.5002C8.59986 26.9002 6.09986 22.7002 4.44986 18.3002C3.44986 15.5502 3.09986 13.5502 3.19986 11.3002C3.34986 9.8502 3.89987 8.7002 4.89987 7.8002L8.59986 4.1002C9.19986 3.5002 9.79986 3.2502 10.5499 3.2502C11.1999 3.2502 11.7999 3.5502 12.3499 4.0502L12.3999 4.1002C12.8499 4.5002 13.2999 4.9502 13.7499 5.4002L18.4999 10.1502C19.3999 11.0502 19.5499 11.7502 19.5499 12.1502C19.5499 12.5502 19.4499 13.1502 18.4999 14.0002L16.8999 15.6002C16.3499 16.2002 15.6999 16.8502 14.8499 17.5502L14.7499 17.6502L14.6499 17.8002C14.1999 18.4002 14.1499 18.9502 14.3999 19.7502L14.4499 19.9502L14.4999 20.1502C15.3499 22.0002 16.3999 23.7002 17.8999 25.6002C20.9999 29.4002 24.0999 32.2502 27.3999 34.3002L27.5499 34.4002C27.9499 34.6002 28.3499 34.8002 28.6999 35.0002C28.8499 35.1502 29.0499 35.2502 29.1999 35.3002C29.3999 35.4002 29.5499 35.4502 29.6499 35.5502L29.9999 35.8002H30.0999L30.2499 35.8502C30.5499 35.9502 30.7499 35.9502 30.8999 35.9502C31.3999 35.9502 31.8499 35.7502 32.2999 35.3002L36.0499 31.5502C36.6499 30.9502 37.1999 30.7002 37.8999 30.7002C38.6499 30.7002 39.3499 31.1502 39.7499 31.5502L45.8499 37.6502C47.0499 38.8502 47.0999 40.1002 45.8499 41.4002Z" fill="white"/>
</g>
<defs>
<clipPath id="clip0_19_669">
<rect width="50" height="50" fill="white"/>
</clipPath>
</defs>
</svg>
